<?xml version="1.0" standalone="no"?>
<!DOCTYPE svg PUBLIC "-//W3C//DTD SVG 20010904//EN"
 "http://www.w3.org/TR/2001/REC-SVG-20010904/DTD/svg10.dtd">
<svg version="1.0" xmlns="http://www.w3.org/2000/svg"
 width="1402.000000pt" height="1697.000000pt" viewBox="0 0 1402.000000 1697.000000"
 preserveAspectRatio="xMidYMid meet">

<g transform="translate(0.000000,1697.000000) scale(0.100000,-0.100000)"
fill="#000000" stroke="none">
<path d="M6827 15483 c-75 -323 -137 -592 -137 -596 0 -4 28 -7 62 -5 l63 3
31 146 c17 80 34 158 38 173 l7 27 151 -3 152 -3 33 -174 c18 -95 34 -175 36
-178 3 -2 31 -3 64 -1 l60 3 -122 595 -122 595 -89 3 -89 3 -138 -588z m292
157 l57 -295 -130 -3 c-71 -1 -130 -1 -132 1 -4 3 121 573 133 612 l7 20 4
-20 c3 -11 30 -153 61 -315z"/>
<path d="M8266 15929 c-3 -15 -8 -38 -11 -52 -8 -29 -15 -25 128 -57 87 -19
97 -24 96 -43 0 -12 -51 -249 -113 -527 -62 -278 -112 -506 -111 -508 3 -4
119 -31 121 -29 1 1 54 238 118 527 65 288 118 526 120 527 1 1 50 -9 110 -22
60 -14 112 -25 117 -25 10 0 32 77 26 93 -2 7 -137 41 -299 78 l-296 65 -6
-27z"/>
<path d="M4363 15612 l-63 -27 0 -225 0 -225 -158 158 c-86 86 -162 157 -168
157 -19 0 -114 -42 -114 -51 0 -4 97 -101 215 -216 l216 -208 -3 -338 c-2
-185 0 -337 4 -337 3 0 32 10 63 22 l56 21 -3 264 c-2 144 -1 263 2 263 3 0
48 -43 100 -96 52 -52 138 -136 191 -185 l96 -89 55 23 c30 12 56 26 57 30 1
4 -109 115 -245 245 l-246 237 7 302 c4 167 6 303 4 302 -2 0 -32 -13 -66 -27z"/>
<path d="M9546 14969 c-140 -315 -235 -543 -230 -548 11 -10 441 -201 452
-201 10 0 42 65 42 84 0 7 -72 45 -165 86 -91 40 -168 77 -171 81 -3 5 90 223
206 485 116 262 214 482 217 489 3 9 -10 21 -34 33 -82 42 -52 89 -317 -509z"/>
<path d="M5725 15250 c-82 -16 -165 -32 -183 -35 -33 -6 -33 -7 -27 -48 4 -23
10 -47 14 -53 4 -7 68 1 199 25 212 39 201 32 186 110 -8 37 2 37 -189 1z"/>
<path d="M2755 14780 c-115 -81 -211 -153 -213 -159 -3 -10 664 -971 674 -971
14 0 454 315 454 324 0 6 -13 27 -28 47 l-28 37 -178 -125 c-98 -68 -179 -123
-180 -121 -18 21 -256 367 -256 371 0 3 54 43 120 89 66 46 120 86 120 91 0 4
-13 25 -29 47 l-28 39 -121 -84 c-66 -47 -124 -85 -129 -85 -7 1 -148 197
-216 300 l-17 27 162 113 c90 62 166 116 171 120 7 6 -50 91 -61 89 -4 0 -101
-67 -217 -149z"/>
<path d="M10788 14314 c-244 -218 -447 -400 -451 -404 -5 -4 15 -24 43 -45
l51 -37 49 43 c27 24 87 79 134 122 l85 79 121 -87 c66 -47 120 -90 120 -94 0
-5 -32 -79 -72 -166 l-71 -157 29 -23 c35 -28 73 -50 77 -44 10 11 479 1111
476 1114 -19 18 -131 95 -139 95 -5 0 -209 -178 -452 -396z m448 224 c-13 -29
-72 -162 -131 -296 -71 -159 -113 -241 -121 -238 -23 9 -203 141 -201 148 2 7
468 438 474 438 1 0 -8 -24 -21 -52z"/>
<path d="M6775 14190 c-389 -32 -738 -95 -1110 -201 -1549 -440 -2792 -1481
-3491 -2924 -363 -751 -563 -1589 -564 -2368 -1 -1149 334 -2286 945 -3207
227 -343 415 -571 735 -891 491 -492 865 -762 1444 -1045 1659 -808 3628 -740
5203 182 644 377 1218 897 1647 1493 103 142 69 135 -54 -11 -127 -151 -474
-500 -630 -632 -358 -305 -748 -561 -1180 -775 -250 -124 -422 -195 -695 -286
-414 -139 -740 -210 -1205 -262 -221 -25 -849 -25 -1070 0 -665 75 -1216 222
-1780 476 -236 107 -639 327 -622 342 4 3 48 14 97 23 751 144 1611 443 2421
842 l231 114 84 0 c200 0 773 38 1149 76 796 79 1589 218 2365 413 285 72 686
183 680 189 -1 2 -90 -15 -196 -37 -1019 -210 -2152 -352 -3194 -401 -439 -20
-475 -21 -475 -17 0 3 48 33 108 68 319 186 772 482 1107 724 105 76 199 141
210 146 11 4 67 13 125 19 578 62 1397 215 2075 386 458 116 1064 299 743 225
-370 -86 -992 -202 -1479 -275 -348 -53 -1177 -151 -1187 -141 -2 2 54 49 125
106 383 308 684 572 1083 950 l165 156 120 27 c221 51 558 138 820 212 256 73
888 274 881 281 -2 2 -112 -23 -244 -56 -392 -99 -821 -193 -1208 -265 -105
-20 -194 -36 -198 -36 -5 0 56 68 135 151 393 413 677 741 905 1044 111 147
101 141 -53 -35 -232 -265 -658 -692 -1021 -1021 -86 -79 -167 -152 -179 -162
-43 -37 -902 -155 -1573 -217 -268 -24 -683 -53 -705 -48 -11 2 31 43 123 121
568 475 1216 1111 1728 1692 406 463 753 902 1137 1445 27 38 -29 -27 -184
-210 -889 -1057 -1927 -2061 -3033 -2932 l-181 -143 -540 0 c-523 1 -733 8
-1135 40 -194 16 -448 41 -514 51 l-38 6 103 60 c809 469 1617 1066 2439 1801
262 234 927 894 1153 1145 418 461 817 952 1147 1407 232 321 234 324 30 80
-1062 -1271 -2418 -2535 -3685 -3435 -482 -342 -1052 -697 -1488 -924 l-142
-75 -215 39 c-1165 212 -2179 580 -3058 1112 l-133 81 6 71 c21 288 29 371 51
525 80 559 229 1042 488 1576 406 837 988 1526 1739 2059 1488 1055 3445 1309
5137 666 430 -164 863 -396 1234 -663 43 -31 83 -54 87 -51 15 9 3 20 -119
107 -773 556 -1679 895 -2682 1003 -171 18 -777 27 -945 14z m-4869 -5646
c216 -136 627 -351 894 -469 569 -250 1219 -457 1834 -585 83 -17 152 -32 153
-34 2 -2 -13 -11 -34 -19 -21 -9 -94 -41 -163 -72 -286 -130 -744 -305 -1028
-395 l-133 -41 -52 17 c-247 80 -696 262 -990 403 -169 80 -456 233 -486 259
-16 14 -25 49 -45 177 -42 259 -76 617 -76 788 l0 49 38 -23 c20 -12 60 -37
88 -55z m8413 -958 c-2 -2 -76 -66 -164 -141 -339 -290 -798 -654 -1142 -905
l-192 -140 -238 -15 c-527 -33 -1415 -46 -1806 -26 l-128 6 180 114 c276 176
655 445 1003 713 l113 86 225 17 c679 49 1562 168 2060 279 68 15 96 19 89 12z
m-4846 -236 c586 -74 1202 -108 1757 -95 186 4 301 3 295 -3 -35 -32 -422
-297 -634 -435 -188 -121 -592 -367 -666 -405 -39 -19 -45 -20 -190 -6 -696
64 -1318 169 -1910 320 -266 68 -274 70 -255 77 8 4 96 35 195 71 328 118 685
270 992 421 92 46 171 84 176 84 4 1 112 -12 240 -29z m-3113 -257 c171 -82
373 -172 519 -230 72 -29 108 -49 100 -53 -35 -19 -570 -127 -719 -145 -30 -3
-63 -9 -72 -11 -21 -6 -29 11 -102 226 -47 136 -126 396 -126 414 0 4 60 -25
133 -64 72 -39 193 -101 267 -137z m1238 -488 c652 -201 1285 -329 2072 -419
l115 -13 -225 -110 c-390 -192 -779 -356 -1134 -479 l-170 -58 -140 28 c-212
42 -693 165 -941 241 -201 61 -511 167 -660 226 l-60 24 -95 187 c-52 103 -92
189 -89 193 4 3 80 17 170 31 228 35 580 107 778 158 91 24 174 44 184 45 10
1 98 -24 195 -54z m4892 -429 c0 -2 -80 -56 -177 -119 -421 -272 -746 -462
-1168 -685 l-180 -95 -360 6 c-507 8 -1003 44 -1500 107 -310 40 -326 42 -321
47 2 3 102 44 223 92 364 147 758 334 1107 526 l154 84 264 -10 c473 -20 1415
1 1818 40 107 10 140 12 140 7z m-5580 -566 c205 -69 542 -167 718 -210 51
-12 90 -26 85 -30 -12 -11 -321 -84 -517 -121 l-169 -33 -38 43 c-46 52 -183
233 -265 350 -40 59 -52 82 -39 77 11 -4 112 -38 225 -76z m1461 -369 c475
-88 1063 -151 1590 -171 156 -6 336 -14 399 -17 l115 -6 -65 -30 c-509 -232
-1242 -482 -1797 -612 -201 -47 -542 -115 -576 -115 -49 0 -442 328 -681 568
l-148 149 118 22 c190 35 534 117 734 175 102 30 190 54 196 55 5 1 57 -8 115
-18z"/>
<path d="M1484 13691 l-42 -47 426 -414 426 -414 179 184 178 183 -38 39 -38
39 -133 -136 c-133 -136 -134 -137 -155 -118 -12 10 -177 169 -367 353 -190
184 -357 345 -370 357 l-25 21 -41 -47z"/>
<path d="M12205 13713 c-123 -44 -194 -142 -211 -291 -4 -35 1 -110 11 -192
19 -146 16 -250 -9 -297 -24 -47 -100 -111 -147 -123 -135 -37 -261 119 -205
254 7 18 27 48 44 68 l31 35 -43 42 -43 43 -36 -45 c-58 -70 -81 -131 -81
-212 0 -56 5 -80 26 -120 31 -60 112 -139 171 -165 147 -67 356 47 410 224 26
86 28 136 12 256 -22 171 -20 266 8 320 12 24 39 57 60 74 70 56 168 34 225
-48 46 -67 41 -140 -14 -212 l-35 -46 37 -44 36 -45 30 28 c16 15 43 57 61 93
25 51 32 77 32 125 0 186 -202 338 -370 278z"/>
<path d="M10683 3595 c-85 -37 -148 -115 -159 -196 -22 -166 214 -440 401
-466 129 -17 244 84 245 218 l1 34 46 -50 c207 -225 254 -387 127 -441 -35
-15 -78 -7 -122 22 -25 17 -26 16 -58 -22 -38 -45 -35 -52 39 -89 63 -31 132
-33 186 -6 52 27 108 92 122 143 25 91 -27 234 -141 388 -73 98 -322 351 -395
400 -108 74 -217 98 -292 65z m166 -112 c32 -15 95 -66 152 -121 l99 -94 0
-52 c-1 -101 -60 -176 -140 -176 -110 0 -330 231 -330 347 0 22 10 44 32 69
54 62 104 69 187 27z"/>
<path d="M3550 3227 c-121 -51 -243 -161 -374 -337 -226 -303 -271 -501 -147
-642 22 -24 63 -57 92 -73 46 -26 65 -30 129 -30 100 0 169 33 263 127 l68 68
-50 40 -50 40 -53 -56 c-119 -126 -213 -141 -306 -51 -93 90 -51 228 154 500
101 134 237 272 299 302 51 25 121 25 164 -1 80 -47 93 -134 36 -253 -19 -40
-35 -76 -35 -80 0 -9 81 -71 92 -71 5 0 27 38 50 85 69 144 64 261 -15 351
-83 94 -210 127 -317 81z"/>
<path d="M9768 2892 c-16 -9 -33 -31 -39 -49 -6 -18 -30 -59 -54 -91 -42 -57
-42 -59 -26 -85 8 -15 18 -27 22 -27 3 0 30 18 59 40 30 22 57 37 61 33 11
-12 488 -789 494 -805 3 -8 -15 -25 -50 -46 -30 -18 -55 -38 -55 -44 0 -5 10
-24 22 -41 12 -18 22 -33 23 -35 2 -2 324 194 333 203 2 2 -9 22 -24 44 l-27
41 -36 -22 c-20 -12 -45 -28 -57 -35 -20 -13 -32 5 -314 462 -161 261 -295
475 -299 475 -3 0 -18 -8 -33 -18z"/>
<path d="M4672 2608 c-132 -23 -253 -151 -373 -395 -118 -242 -163 -455 -124
-588 43 -150 226 -229 373 -160 125 58 264 256 368 527 95 244 98 422 9 525
-59 69 -165 107 -253 91z m126 -128 c59 -36 74 -73 69 -175 -5 -116 -46 -240
-144 -435 -111 -220 -202 -319 -296 -320 -44 0 -82 18 -117 55 -21 22 -25 38
-28 102 -7 121 35 259 145 480 64 128 139 233 201 280 53 40 117 45 170 13z"/>
<path d="M5586 2053 c2 -126 7 -402 10 -615 l6 -387 55 -11 c30 -7 56 -10 58
-8 4 4 515 1108 515 1113 0 6 -109 27 -117 22 -5 -3 -96 -201 -203 -440 l-195
-435 -3 483 -2 483 -45 11 c-91 23 -84 41 -79 -216z"/>
<path d="M7630 2131 c-101 -16 -105 -18 -103 -41 3 -31 161 -1105 169 -1141 4
-20 10 -25 27 -23 174 27 271 46 308 62 134 58 199 190 199 407 0 188 -44 407
-110 541 -46 94 -103 157 -168 187 -62 27 -184 31 -322 8z m233 -102 c50 -14
113 -71 143 -131 56 -111 98 -331 98 -518 0 -109 -3 -132 -23 -178 -13 -28
-39 -65 -57 -82 -36 -31 -111 -57 -178 -62 l-40 -3 -72 480 c-40 264 -69 483
-66 487 16 16 145 21 195 7z"/>
<path d="M6776 2088 c-2 -7 -11 -247 -20 -533 -9 -286 -19 -550 -22 -587 l-6
-68 66 0 66 0 0 33 c0 17 9 275 20 572 11 297 20 552 20 568 0 26 -1 27 -60
27 -40 0 -62 -4 -64 -12z"/>
<path d="M9235 1801 c-11 -4 -90 -34 -177 -65 l-156 -58 15 -44 c8 -24 19 -46
23 -49 7 -4 357 119 367 128 1 2 -6 24 -15 50 -17 48 -22 51 -57 38z"/>
</g>
</svg>
